<svg width="96" height="96" xmlns="http://www.w3.org/2000/svg" xmlns:xlink="http://www.w3.org/1999/xlink" xml:space="preserve" overflow="hidden"><g transform="translate(-1075 -203)"><path d="M1151 263 1095 263 1095 229 1151 229 1151 263ZM1157 227C1157 224.8 1155.2 223 1153 223L1093 223C1090.8 223 1089 224.8 1089 227L1089 269 1157 269 1157 227Z"/><path d="M1129 273 1129 274C1129 274.6 1128.6 275 1128 275L1118 275C1117.4 275 1117 274.6 1117 274L1117 273 1077 273 1077 275C1077 277.2 1078.8 279 1081 279L1165 279C1167.2 279 1169 277.2 1169 275L1169 273 1129 273Z"/></g></svg>