<svg width="96" height="96" xmlns="http://www.w3.org/2000/svg" xmlns:xlink="http://www.w3.org/1999/xlink" xml:space="preserve" overflow="hidden"><g transform="translate(-592 -312)"><path d="M678 367.1C680.9 362.9 680.7 357.2 677.5 353.2 677.9 352 678.1 350.8 678.1 349.6 678.1 343.9 674 339.1 668.5 338 666.8 333.1 662.3 329.9 657.1 329.9 656.2 329.9 655.2 330 654.3 330.2 652.2 327.7 649.1 326.2 645.9 325.9 642.6 325.7 639.4 326.8 637 329 633.9 326.9 630 326.3 626.5 327.4 622.9 328.5 620.1 331.2 618.8 334.8 618.6 334.8 618.3 334.8 618.1 334.8 611.5 334.8 606.2 340 606.1 346.6 606.1 346.8 606.1 347 606.1 347.2 602.1 349.4 599.8 353.7 600.1 358.3 600.5 364.6 606.1 369.3 612.5 369.3L628 369.3C634.6 369.3 640 374.6 640.1 381.2L640.1 394 648 394 648 385C648 384.6 648 384.1 648 383.7 648 380 647.9 375.3 650.5 372.3 652.1 370.6 653.9 369.1 655.8 367.8 657.3 366.9 658.6 365.8 659.7 364.5 660.2 363.7 660.7 362.9 661 362.1 658.9 361.3 656.7 361 654.5 361.3 653.4 361.4 652.4 360.7 652.2 359.6 652.1 358.5 652.8 357.5 653.9 357.3 656.6 356.9 659.3 357.2 661.9 358.2 661.9 357.9 661.9 357.7 662 357.4 662.1 355.8 661.9 354.2 661.4 352.7 660 349.1 656.5 347.5 653.2 346.2 652.6 346 652 345.8 651.2 345.6L650.6 345.4 650.5 345.4C649.7 345.5 649 345.7 648.2 346L647.3 346.2 646.3 346.4C644.6 348.4 643.7 351 643.9 353.7 644.1 356.4 645.4 358.8 647.4 360.5 648.2 361.2 648.2 362.4 647.6 363.3 647 364 645.8 364.1 645 363.5 643.8 362.5 642.8 361.2 642 359.8L641.8 359.8C639 359.3 635.8 358.8 633.2 357.1 632.3 356.5 632.1 355.3 632.7 354.4 633.3 353.5 634.5 353.2 635.4 353.8 636.9 354.7 638.6 355.3 640.4 355.5 640.2 355 640.1 354.5 640 353.9 639.8 351.7 640.2 349.4 641.1 347.4 639.7 347.6 638.4 347.7 637 347.7 635.8 347.7 634.6 347.6 633.4 347.4 631.2 350.1 628.1 352.1 624.7 352.9 620.2 355.2 616 358.1 616 363 616 364.1 615.1 365 614 365 612.9 365 612 364.1 612 363 612.1 359.2 613.8 355.7 616.7 353.3 614.3 353 612.1 352 610.5 350.2 609.8 349.3 610 348.1 610.8 347.4 611.6 346.7 612.9 346.8 613.6 347.6 614.4 348.6 616.7 349.5 620 349.4 623.3 349.4 626.6 348.2 629.1 346 626.2 344.8 623.8 342.6 622.3 339.8 621.7 338.8 622.1 337.6 623 337.1 624 336.5 625.2 336.9 625.7 337.8 628.7 343.2 635 344.7 644.9 342.4 643.1 340.9 641.8 338.5 641.9 334.7 641.9 333.6 642.9 332.7 644 332.8 645.1 332.8 646 333.8 645.9 334.9 645.7 339.4 648.2 340.3 652.2 341.5 652.8 341.7 653.4 341.8 654 342 655.1 339.5 657.3 337.6 660 336.9 661.1 336.6 662.2 337.3 662.5 338.4 662.8 339.5 662.1 340.6 661 340.9 659.6 341.3 658.5 342.2 657.8 343.5 657.8 343.6 657.8 343.6 657.8 343.7 660.9 345.2 663.6 347.4 665 351.1 665.3 351.9 665.5 352.7 665.6 353.5 666 353.2 666.3 352.8 666.5 352.3 667.2 350.8 667.7 349.3 667.9 347.6 668 346.9 668.5 346.3 669.2 346 669.9 345.7 670.7 345.9 671.2 346.4 671.8 346.9 672 347.6 671.8 348.4 671.5 350.4 670.9 352.4 669.9 354.2 668.9 355.9 667.4 357.3 665.6 358.3 665.4 360.8 664.6 363.3 663.4 365.5 664.7 367 666.1 368.3 667.8 369.3 668.4 369.7 668.8 370.4 668.8 371.1 668.8 371.8 668.4 372.5 667.7 372.8 667 373.1 666.3 373.1 665.7 372.7 664 371.6 662.4 370.2 661 368.7 660 369.5 658.9 370.3 657.9 371 656.2 372.1 654.7 373.3 653.4 374.8 651.8 376.7 651.9 380.4 651.9 383.6 651.9 384.1 651.9 384.5 651.9 385L651.9 394 659.9 394C659.9 381 666.1 380.3 666.9 380.1 669.5 379.4 676.4 375.8 677.9 368.4 678.1 368 678 367.5 678 367.1 677.9 367.1 677.9 367.1 678 367.1Z"/></g></svg>